<?xml version="1.0" encoding="UTF-8"?><svg id="Layer_1" xmlns="http://www.w3.org/2000/svg" viewBox="0 0 216 56.66"><defs><style>.cls-1{fill:#fff;}</style></defs><path class="cls-1" d="M0,56.65L7.91.02h7.5l-6.88,49.13h8.4l-1.03,7.5H0Z"/><path class="cls-1" d="M36.88,56.65L44.8.02h7.5l-7.91,56.63h-7.51Z"/><path class="cls-1" d="M79.96,56.65c-.41-5.46-.75-10.05-1-13.76-.25-3.72-.46-6.86-.62-9.43s-.28-4.72-.34-6.47c-.07-1.74-.13-3.42-.17-5.02-.37,3.35-.77,6.67-1.2,9.98-.44,3.3-.91,6.67-1.41,10.12l-2,14.59h-6.26L74.87.02h8.6c.05,3.99.09,7.5.14,10.53.05,3.03.09,5.69.14,7.98.05,2.29.08,4.28.1,5.95.02,1.68.05,3.17.07,4.47.02,1.31.05,2.48.07,3.51.02,1.03.03,2.03.03,2.99.32-3.03.68-6.01,1.07-8.95s.79-5.87,1.2-8.81L88.77.02h6.26l-7.91,56.63s-7.16,0-7.16,0Z"/><path class="cls-1" d="M109.55,56.65L117.46.02h15.55l-1.03,7.5h-8.05l-2.34,16.52h5.09l-1.03,7.5h-5.09l-2.48,17.62h8.4l-1.03,7.5h-15.9,0Z"/><path class="cls-1" d="M159.64,56.65l.28-8.05h-5.5l-2.06,8.05h-7.23L159.92.02h8.67l-1.45,56.63h-7.5ZM160.06,41.79c.18-3.72.37-7.43.55-11.15.18-3.72.41-7.52.69-11.42-.83,3.9-1.68,7.71-2.55,11.42-.87,3.72-1.77,7.43-2.68,11.15h3.99,0Z"/><path class="cls-1" d="M200.93,56.65c-.41-5.46-.75-10.05-1-13.76-.25-3.72-.46-6.86-.62-9.43-.16-2.57-.28-4.72-.34-6.47-.07-1.74-.13-3.42-.17-5.02-.37,3.35-.77,6.67-1.2,9.98-.44,3.3-.91,6.67-1.41,10.12l-2,14.59h-6.26L195.84.02h8.6c.05,3.99.09,7.5.14,10.53.05,3.03.09,5.69.14,7.98.05,2.29.08,4.28.1,5.95.02,1.68.05,3.17.07,4.47.02,1.31.05,2.48.07,3.51.02,1.03.03,2.03.03,2.99.32-3.03.68-6.01,1.07-8.95.39-2.94.79-5.87,1.2-8.81L209.74.02h6.26l-7.91,56.63h-7.16Z"/><path class="cls-1" d="M25.54,56.63L33.45,0h1.54l-7.91,56.63h-1.54Z"/><path class="cls-1" d="M55.1,56.63L63.01,0h1.54l-7.91,56.63s-1.54,0-1.54,0Z"/><path class="cls-1" d="M97.12,56.63L105.03,0h1.54l-7.91,56.63h-1.54Z"/><path class="cls-1" d="M134.74,56.63L142.65,0h1.54l-7.91,56.63h-1.54,0Z"/><path class="cls-1" d="M175.43,56.63L183.35,0h1.54l-7.91,56.63h-1.55Z"/></svg>